<svg width="600" height="600" viewBox="0 0 600 600" fill="none" xmlns="http://www.w3.org/2000/svg">
<path d="M0 300C0 134.315 134.315 0 300 0H500C555.228 0 600 44.7715 600 100V500C600 555.228 555.228 600 500 600H100C44.7715 600 0 555.228 0 500V300Z" fill="white"/>
<path d="M414.996 149C414.996 160.046 423.95 169 434.996 169H497.996C509.042 169 517.996 160.046 517.996 149V76H434.996C423.95 76 414.996 84.9543 414.996 96V149Z" fill="black"/>
<path d="M415 209C415 197.954 423.954 189 435 189H498C509.046 189 518 197.954 518 209V360C518 371.046 509.046 380 498 380H435C423.954 380 415 371.046 415 360V209Z" fill="#C05C3C"/>
<path d="M389 76C392.866 76 396 79.134 396 83V162C396 165.866 392.866 169 389 169H302C301.925 169 301.85 168.997 301.776 168.993C232.164 174.059 177.305 230.552 177.305 299.5C177.305 371.782 237.599 430.378 311.975 430.378C335.724 430.378 358.037 424.403 377.409 413.916C390.927 406.598 405.558 400.847 420.93 400.847H516.996C478.977 473.345 401.444 523 311.975 523C184.963 523 82 422.936 82 299.5C82 178.801 180.448 80.4507 303.562 76.1484C304.027 76.0516 304.507 76 305 76H389Z" fill="#C05C3C"/>
</svg>
